<svg width="179" height="44" viewBox="0 0 179 44" fill="none" xmlns="http://www.w3.org/2000/svg">
<path d="M17.5 44C17.2448 44 17.0078 43.9814 16.7891 43.9443C16.5703 43.9072 16.3516 43.8515 16.1328 43.7772C11.2109 42.1063 7.29167 39.0156 4.375 34.5049C1.45833 29.9943 0 25.139 0 19.9392V9.41266C0 8.48439 0.264687 7.64895 0.794062 6.90633C1.32344 6.16371 2.00667 5.62532 2.84375 5.29114L15.9687 0.278481C16.4792 0.092827 16.9896 0 17.5 0C18.0104 0 18.5208 0.092827 19.0312 0.278481L32.1562 5.29114C32.9948 5.62532 33.6787 6.16371 34.2081 6.90633C34.7375 7.64895 35.0015 8.48439 35 9.41266V19.9392C35 25.1376 33.5417 29.9928 30.625 34.5049C27.7083 39.017 23.7891 42.1078 18.8672 43.7772C18.6484 43.8515 18.4297 43.9072 18.2109 43.9443C17.9922 43.9814 17.7552 44 17.5 44ZM17.5 39.5443C21.2917 38.319 24.4271 35.8684 26.9062 32.1924C29.3854 28.5165 30.625 24.4321 30.625 19.9392V9.41266L17.5 4.4L4.375 9.41266V19.9392C4.375 24.4321 5.61458 28.5165 8.09375 32.1924C10.5729 35.8684 13.7083 38.319 17.5 39.5443Z" fill="black"/>
<path d="M13.8889 10C14.65 10 15.3483 10.2747 15.8567 10.7823C16.365 11.2905 16.6667 12.016 16.6667 12.8911C16.6667 13.762 16.3689 14.6361 15.8833 15.2977C15.4 15.9561 14.7 16.439 13.8889 16.439C13.0778 16.439 12.3778 15.9561 11.8944 15.2977C11.4089 14.6361 11.1111 13.762 11.1111 12.8917C11.1111 12.016 11.4128 11.2905 11.9217 10.7823C12.4294 10.2747 13.1278 10 13.8889 10ZM7.77778 14.8293C8.53889 14.8293 9.23722 15.104 9.74556 15.6116C10.2539 16.1198 10.5556 16.8452 10.5556 17.7204C10.5556 18.5913 10.2578 19.4654 9.77222 20.127C9.28889 20.7854 8.58889 21.2683 7.77778 21.2683C6.96667 21.2683 6.26667 20.7854 5.78333 20.127C5.29778 19.4654 5 18.5907 5 17.7209C5 16.8452 5.30167 16.1198 5.81056 15.6116C6.31833 15.104 7.01667 14.8293 7.77778 14.8293ZM17.5 18.5854C13.5422 18.5854 10.2633 21.8398 9.23111 25.9205C8.77333 27.7309 9.47167 29.6728 11.1939 30.5931C12.5622 31.325 14.61 32 17.4994 32C20.3894 32 22.4372 31.325 23.8061 30.5931C25.5278 29.6728 26.2261 27.7309 25.7683 25.921C24.7367 21.8398 21.4572 18.5854 17.5 18.5854ZM27.2222 14.8293C26.4611 14.8293 25.7628 15.104 25.255 15.6116C24.7461 16.1198 24.4444 16.8452 24.4444 17.7204C24.4444 18.5913 24.7422 19.4654 25.2278 20.127C25.7111 20.7854 26.4111 21.2683 27.2222 21.2683C28.0333 21.2683 28.7333 20.7854 29.2167 20.127C29.7022 19.4654 30 18.5913 30 17.7209C30 16.8452 29.6983 16.1198 29.19 15.6116C28.6817 15.104 27.9833 14.8293 27.2222 14.8293ZM21.1111 10C20.35 10 19.6517 10.2747 19.1439 10.7823C18.635 11.2905 18.3333 12.016 18.3333 12.8911C18.3333 13.762 18.6311 14.6361 19.1167 15.2977C19.6 15.9561 20.3 16.439 21.1111 16.439C21.9222 16.439 22.6222 15.9561 23.1056 15.2977C23.5911 14.6361 23.8889 13.762 23.8889 12.8917C23.8889 12.016 23.5872 11.2905 23.0789 10.7823C22.5706 10.2747 21.8722 10 21.1111 10Z" fill="black"/>
<path d="M42.968 31V13.48H46.904V31H42.968ZM46.424 23.944V20.68H53.192V23.944H46.424ZM46.424 16.744V13.48H53.48V16.744H46.424ZM60.4342 31.408C58.9142 31.408 57.7462 30.92 56.9302 29.944C56.1142 28.952 55.7062 27.464 55.7062 25.48V17.848H59.5462V25.672C59.5462 26.376 59.7462 26.936 60.1462 27.352C60.5462 27.768 61.0822 27.976 61.7542 27.976C62.4422 27.976 63.0022 27.76 63.4342 27.328C63.8662 26.896 64.0822 26.312 64.0822 25.576V17.848H67.9222V31H64.8742V25.456H65.1382C65.1382 26.784 64.9622 27.896 64.6102 28.792C64.2742 29.672 63.7702 30.328 63.0982 30.76C62.4262 31.192 61.5942 31.408 60.6022 31.408H60.4342ZM71.4629 31V17.848H74.5109V23.488H74.4389C74.4389 21.632 74.8309 20.2 75.6149 19.192C76.4149 18.184 77.5669 17.68 79.0709 17.68H79.5749V20.992H78.6149C77.5589 20.992 76.7429 21.28 76.1669 21.856C75.5909 22.416 75.3029 23.232 75.3029 24.304V31H71.4629ZM88.0445 31.432C86.5885 31.432 85.3485 31.192 84.3245 30.712C83.3005 30.232 82.5165 29.568 81.9725 28.72C81.4285 27.872 81.1565 26.912 81.1565 25.84H83.5085C83.5085 26.368 83.6445 26.896 83.9165 27.424C84.2045 27.952 84.6765 28.392 85.3325 28.744C86.0045 29.096 86.9085 29.272 88.0445 29.272C89.1005 29.272 89.9645 29.12 90.6365 28.816C91.3085 28.496 91.8045 28.088 92.1245 27.592C92.4445 27.08 92.6045 26.528 92.6045 25.936C92.6045 25.216 92.2925 24.624 91.6685 24.16C91.0445 23.68 90.1325 23.384 88.9325 23.272L86.9885 23.104C85.4365 22.976 84.1965 22.496 83.2685 21.664C82.3405 20.832 81.8765 19.736 81.8765 18.376C81.8765 17.304 82.1325 16.368 82.6445 15.568C83.1725 14.768 83.9005 14.144 84.8285 13.696C85.7565 13.232 86.8365 13 88.0685 13C89.2845 13 90.3565 13.224 91.2845 13.672C92.2125 14.12 92.9325 14.752 93.4445 15.568C93.9725 16.368 94.2365 17.328 94.2365 18.448H91.8845C91.8845 17.888 91.7485 17.36 91.4765 16.864C91.2205 16.368 90.8125 15.96 90.2525 15.64C89.6925 15.32 88.9645 15.16 88.0685 15.16C87.2045 15.16 86.4845 15.312 85.9085 15.616C85.3485 15.92 84.9245 16.32 84.6365 16.816C84.3645 17.296 84.2285 17.816 84.2285 18.376C84.2285 19.016 84.4765 19.584 84.9725 20.08C85.4685 20.576 86.2045 20.864 87.1805 20.944L89.1245 21.112C90.3245 21.208 91.3565 21.464 92.2205 21.88C93.1005 22.28 93.7725 22.824 94.2365 23.512C94.7165 24.184 94.9565 24.992 94.9565 25.936C94.9565 27.008 94.6685 27.96 94.0925 28.792C93.5165 29.624 92.7085 30.272 91.6685 30.736C90.6285 31.2 89.4205 31.432 88.0445 31.432ZM98.5674 31V13.48H100.871V23.944H100.295C100.295 22.68 100.455 21.592 100.775 20.68C101.111 19.752 101.623 19.04 102.311 18.544C102.999 18.048 103.879 17.8 104.951 17.8H105.047C106.583 17.8 107.743 18.312 108.527 19.336C109.311 20.344 109.703 21.792 109.703 23.68V31H107.399V23.2C107.399 22.16 107.103 21.352 106.511 20.776C105.935 20.2 105.183 19.912 104.255 19.912C103.231 19.912 102.407 20.256 101.783 20.944C101.175 21.616 100.871 22.504 100.871 23.608V31H98.5674ZM114.543 31V18.184H116.847V31H114.543ZM112.575 20.008V18.184H116.847V20.008H112.575ZM115.191 16.12C114.679 16.12 114.295 15.984 114.039 15.712C113.799 15.44 113.679 15.096 113.679 14.68C113.679 14.264 113.799 13.92 114.039 13.648C114.295 13.376 114.679 13.24 115.191 13.24C115.703 13.24 116.079 13.376 116.319 13.648C116.575 13.92 116.703 14.264 116.703 14.68C116.703 15.096 116.575 15.44 116.319 15.712C116.079 15.984 115.703 16.12 115.191 16.12ZM126.75 31.432C125.63 31.432 124.662 31.24 123.846 30.856C123.03 30.472 122.366 29.968 121.854 29.344C121.342 28.704 120.958 27.992 120.702 27.208C120.462 26.424 120.342 25.624 120.342 24.808V24.376C120.342 23.544 120.462 22.736 120.702 21.952C120.958 21.168 121.342 20.464 121.854 19.84C122.366 19.2 123.014 18.696 123.798 18.328C124.598 17.944 125.534 17.752 126.606 17.752C127.998 17.752 129.142 18.056 130.038 18.664C130.95 19.256 131.622 20.024 132.054 20.968C132.502 21.912 132.726 22.92 132.726 23.992V25.024H121.35V23.296H131.046L130.518 24.232C130.518 23.32 130.374 22.536 130.086 21.88C129.798 21.208 129.366 20.688 128.79 20.32C128.214 19.952 127.486 19.768 126.606 19.768C125.694 19.768 124.934 19.976 124.326 20.392C123.734 20.808 123.286 21.376 122.982 22.096C122.694 22.816 122.55 23.648 122.55 24.592C122.55 25.504 122.694 26.328 122.982 27.064C123.286 27.784 123.75 28.36 124.374 28.792C124.998 29.208 125.79 29.416 126.75 29.416C127.758 29.416 128.574 29.192 129.198 28.744C129.838 28.296 130.222 27.776 130.35 27.184H132.51C132.334 28.064 131.982 28.824 131.454 29.464C130.926 30.104 130.262 30.592 129.462 30.928C128.662 31.264 127.758 31.432 126.75 31.432ZM136.141 31V13.48H138.445V31H136.141ZM134.365 15.304V13.48H138.445V15.304H134.365ZM148.216 31.432C147.304 31.432 146.464 31.264 145.696 30.928C144.928 30.592 144.256 30.12 143.68 29.512C143.12 28.904 142.68 28.2 142.36 27.4C142.056 26.6 141.904 25.736 141.904 24.808V24.376C141.904 23.464 142.056 22.608 142.36 21.808C142.664 21.008 143.088 20.304 143.632 19.696C144.192 19.088 144.848 18.616 145.6 18.28C146.368 17.928 147.216 17.752 148.144 17.752C149.12 17.752 150.008 17.96 150.808 18.376C151.608 18.776 152.264 19.408 152.776 20.272C153.288 21.136 153.576 22.256 153.64 23.632L152.68 22.096V13.48H154.984V31H153.16V25.312H153.832C153.768 26.768 153.464 27.952 152.92 28.864C152.376 29.76 151.688 30.416 150.856 30.832C150.04 31.232 149.16 31.432 148.216 31.432ZM148.528 29.416C149.312 29.416 150.024 29.24 150.664 28.888C151.304 28.536 151.816 28.032 152.2 27.376C152.584 26.704 152.776 25.92 152.776 25.024V23.92C152.776 23.04 152.576 22.296 152.176 21.688C151.792 21.064 151.272 20.592 150.616 20.272C149.976 19.936 149.272 19.768 148.504 19.768C147.656 19.768 146.904 19.968 146.248 20.368C145.608 20.768 145.104 21.328 144.736 22.048C144.384 22.768 144.208 23.616 144.208 24.592C144.208 25.568 144.392 26.424 144.76 27.16C145.128 27.88 145.64 28.44 146.296 28.84C146.952 29.224 147.696 29.416 148.528 29.416Z" fill="black"/>
</svg>
